<svg id="Capa_1" enable-background="new 0 0 512 512" height="512" viewBox="0 0 512 512" width="512" xmlns="http://www.w3.org/2000/svg"><circle cx="256" cy="256" fill="#966857" r="256"/><path d="m512 256c0-30.556-5.363-59.857-15.184-87.026l-75.84-75.84-308.093 324.094 89.028 89.027c17.438 3.752 35.529 5.745 54.089 5.745 141.385 0 256-114.615 256-256z" fill="#805142"/><path d="m148.632 191.43-57.608-57.609c-11.235-11.235-11.235-29.452 0-40.687 11.236-11.236 29.452-11.236 40.688 0l57.608 57.608z" fill="#bec3d2"/><path d="m363.368 191.43 57.609-57.609c11.235-11.236 11.235-29.452 0-40.687-11.236-11.236-29.452-11.236-40.688 0l-57.608 57.609z" fill="#9196aa"/><path d="m145.375 343.91v62.453c0 9.976-8.087 18.063-18.063 18.063-9.976 0-18.063-8.087-18.063-18.063v-26.328c0-19.951 16.174-36.125 36.126-36.125z" fill="#fff"/><path d="m366.625 343.91v62.453c0 9.976 8.087 18.063 18.063 18.063 9.976 0 18.063-8.087 18.063-18.063v-26.328c0-19.951-16.174-36.125-36.126-36.125z" fill="#e9edf5"/><circle cx="256" cy="226.513" fill="#cdd2e1" r="157.655"/><path d="m256 68.858c-.135 0-.27.005-.405.005v315.3c.135 0 .269.005.405.005 87.071 0 157.655-70.585 157.655-157.655s-70.584-157.655-157.655-157.655z" fill="#afb4c8"/><circle cx="162.466" cy="212.078" fill="#555a66" r="22.371"/><circle cx="349.524" cy="212.074" fill="#333940" r="22.371"/><path d="m338.849 405.954h-165.698c-49.164 0-89.02-39.856-89.02-89.02 0-49.164 39.856-89.02 89.02-89.02h165.698c49.164 0 89.02 39.856 89.02 89.02 0 49.164-39.856 89.02-89.02 89.02z" fill="#bec3d2"/><path d="m338.849 227.914h-83.254v178.04h83.254c49.164 0 89.02-39.855 89.02-89.02 0-49.164-39.856-89.02-89.02-89.02z" fill="#9196aa"/><path d="m166.815 332.991c-9.976 0-18.063-8.087-18.063-18.063v-29.352c0-9.976 8.087-18.063 18.063-18.063 9.976 0 18.063 8.087 18.063 18.063v29.352c0 9.976-8.087 18.063-18.063 18.063z" fill="#7e8596"/><path d="m345.184 332.99c-9.976 0-18.063-8.087-18.063-18.063v-29.352c0-9.976 8.087-18.063 18.063-18.063 9.976 0 18.063 8.087 18.063 18.063v29.352c0 9.976-8.087 18.063-18.063 18.063z" fill="#636978"/></svg>