<svg id="Flat" height="512" viewBox="0 0 512 512" width="512" xmlns="http://www.w3.org/2000/svg"><path d="m444.286 178.255a55.985 55.985 0 0 0 -24.479-86.639 48 48 0 1 0 -87.614 0 55.985 55.985 0 0 0 -24.479 86.639 60 60 0 1 0 68.286 87.663 60 60 0 1 0 68.286-87.663z" fill="#3dc285"/><path d="m204.286 178.255a55.985 55.985 0 0 0 -24.479-86.639 48 48 0 1 0 -87.614 0 55.985 55.985 0 0 0 -24.479 86.639 60 60 0 1 0 68.286 87.663 60 60 0 1 0 68.286-87.663z" fill="#3dc285"/><path d="m173.657 130.343a8 8 0 0 0 -11.314 0l-18.343 18.343v-76.686a8 8 0 0 0 -16 0v76.686l-18.343-18.343a8 8 0 0 0 -11.314 11.314l29.657 29.657v140.686a8 8 0 0 0 16 0v-140.686l29.657-29.657a8 8 0 0 0 0-11.314z" fill="#7a4830"/><path d="m413.657 130.343a8 8 0 0 0 -11.314 0l-18.343 18.343v-76.686a8 8 0 0 0 -16 0v76.686l-18.343-18.343a8 8 0 0 0 -11.314 11.314l29.657 29.657v140.686a8 8 0 0 0 16 0v-140.686l29.657-29.657a8 8 0 0 0 0-11.314z" fill="#7a4830"/><path d="m272 408c-.52 0-1 .12-1.517.153a23.888 23.888 0 0 0 -38.648-25.788 23.819 23.819 0 0 0 -39.835-16.136 23.819 23.819 0 0 0 -39.835 16.136 23.858 23.858 0 0 0 -38.648 25.788c-.512-.033-1-.153-1.517-.153a24 24 0 0 0 -24 24v56h208v-56a24 24 0 0 0 -24-24z" fill="#20754d"/><path d="m376 400v88h88a24 24 0 0 0 0-48c-.52 0-1 .12-1.517.153a23.888 23.888 0 0 0 -38.648-25.788 23.819 23.819 0 0 0 -39.835-16.136z" fill="#2e9163"/><path d="m480 312h-96a8 8 0 0 0 -8 8v160a8 8 0 0 0 8 8h96a8 8 0 0 0 8-8v-160a8 8 0 0 0 -8-8zm-88 160v-144h16v144zm32 0v-144h16v144zm48 0h-16v-144h16z" fill="#ad6643"/><path d="m136 400v88h-88a24 24 0 0 1 0-48c.52 0 1.005.12 1.517.153a23.888 23.888 0 0 1 38.648-25.788 23.819 23.819 0 0 1 39.835-16.136z" fill="#2e9163"/><path d="m24 320v160a8 8 0 0 0 8 8h96a8 8 0 0 0 8-8v-160a8 8 0 0 0 -8-8h-96a8 8 0 0 0 -8 8zm80 152v-144h16v144zm-32 0v-144h16v144zm-32-144h16v144h-16z" fill="#ad6643"/><path d="m192.062 488h-39.9l-.162-73.635a23.823 23.823 0 0 1 38.549 25.788c.51-.033 1-.153 1.513-.153a24 24 0 0 1 0 48" fill="#2e9163"/><path d="m368 398.229a23.819 23.819 0 0 0 -39.835 16.136 23.858 23.858 0 0 0 -38.648 25.788c-.512-.033-1-.153-1.517-.153a24 24 0 0 0 0 48h80z" fill="#2e9163"/><path d="m120 200h32v256h-32z" fill="#ad6643"/><path d="m112 456h48v32h-48z" fill="#734b39"/><path d="m360 200h32v260.571h-32z" fill="#ad6643"/><path d="m352 456h48v32h-48z" fill="#734b39"/><path d="m120 200h272v96h-272z" fill="#dbb697"/><g fill="#7d6656"><path d="m256 272a24 24 0 1 1 24-24 24.027 24.027 0 0 1 -24 24zm0-32a8 8 0 1 0 8 8 8.009 8.009 0 0 0 -8-8z"/><path d="m320 272a24 24 0 1 1 24-24 24.027 24.027 0 0 1 -24 24zm0-32a8 8 0 1 0 8 8 8.009 8.009 0 0 0 -8-8z"/><path d="m208 272h-32a8 8 0 0 1 -5.657-13.657l18.344-18.343h-12.687a8 8 0 0 1 0-16h32a8 8 0 0 1 5.657 13.657l-18.344 18.343h12.687a8 8 0 0 1 0 16z"/></g></svg>