<svg id="Capa_1" enable-background="new 0 0 512 512" height="512" viewBox="0 0 512 512" width="512" xmlns="http://www.w3.org/2000/svg"><circle cx="256" cy="256" fill="#966857" r="256"/><path d="m512 256c0-24.547-3.462-48.284-9.912-70.757l-54.43-54.43-378.77 66.664 132.169 132.169-100.961 61.472 118.098 118.098c12.338 1.826 24.96 2.784 37.806 2.784 141.385 0 256-114.615 256-256z" fill="#805142"/><circle cx="109.019" cy="161.257" fill="#fdba12" r="54.061"/><circle cx="122.181" cy="174.419" fill="#ff6d00" r="40.899"/><circle cx="402.981" cy="161.257" fill="#ffa300" r="54.061"/><circle cx="389.819" cy="174.419" fill="#f24500" r="40.899"/><path d="m256 98.296c96.304 0 152.792 57.632 174.374 156.95 37.027 170.397-78.07 174.374-174.374 174.374s-211.401-3.977-174.374-174.374c21.582-99.318 78.07-156.95 174.374-156.95z" fill="#ffa300"/><path d="m430.374 255.246c-21.582-99.318-78.07-156.95-174.374-156.95v331.324c96.304 0 211.401-3.977 174.374-174.374z" fill="#fe8205"/><path d="m340.216 364.819c22.19 80.455-37.366 83.459-83.459 83.459s-101.182-1.903-83.459-83.459c10.33-47.536 37.366-75.12 83.459-75.12s70.348 27.584 83.459 75.12z" fill="#fff"/><path d="m340.216 364.818c-13.111-47.536-37.366-75.12-83.459-75.12-.255 0-.502.013-.757.015v158.564h.757c46.093.001 105.649-3.003 83.459-83.459z" fill="#e9edf5"/><path d="m303.147 103.678c-14.36-3.552-30.029-5.382-47.147-5.382-16.86 0-32.495 1.773-46.941 5.22v199.642l94.087-.207v-199.273z" fill="#fdba12"/><path d="m303.147 103.678c-14.36-3.551-30.029-5.382-47.147-5.382v204.759l47.147-.104z" fill="#ffa300"/><path d="m302.107 317.024c7.005-7.005 4.08-18.885-5.341-21.946-11.86-3.854-25.118-5.847-39.954-5.847-15.335 0-29.198 2.131-41.639 6.246-9.273 3.067-11.948 14.935-5.042 21.842l26.185 26.185c10.856 10.856 28.459 10.856 39.314-.001z" fill="#333940"/><path d="m296.765 295.077c-11.86-3.854-25.118-5.847-39.954-5.847-.274 0-.538.013-.811.014v62.4c7.106-.007 14.209-2.721 19.63-8.143l26.477-26.479c7.005-7.004 4.08-18.883-5.342-21.945z" fill="#23272b"/><circle cx="157.146" cy="263.958" fill="#333940" r="16.833"/><circle cx="354.854" cy="263.958" fill="#23272b" r="16.833"/><path d="m74.596 309.598 78.203-17.854-71.745-33.721c-4.043 19.273-6.113 36.387-6.458 51.575z" fill="#ff6d00"/><path d="m100.096 391.118 50.184-51.604-71.91 9.805c4.222 17.446 11.752 31.105 21.726 41.799z" fill="#ff6d00"/><path d="m437.404 309.598-78.203-17.854 71.745-33.721c4.043 19.273 6.113 36.387 6.458 51.575z" fill="#f24500"/><path d="m411.904 391.118-50.184-51.604 71.91 9.805c-4.222 17.446-11.752 31.105-21.726 41.799z" fill="#f24500"/><path d="m256 195.275-45.044-45.044-22.745 22.744 67.789 67.79 67.789-67.79-22.745-22.744z" fill="#ff6d00"/><path d="m323.789 172.976-22.745-22.745-45.044 45.044v45.49z" fill="#f24500"/><path d="m196.22 107.126 59.78 59.781 59.78-59.781c-11.709-3.806-24.277-6.415-37.729-7.76l-22.051 22.051-22.051-22.051c-13.453 1.344-26.02 3.954-37.729 7.76z" fill="#ff6d00"/><path d="m278.051 99.366-22.051 22.051v45.49l59.781-59.781c-11.71-3.806-24.277-6.416-37.73-7.76z" fill="#f24500"/></svg>