<svg id="Capa_1" enable-background="new 0 0 512 512" height="512" viewBox="0 0 512 512" width="512" xmlns="http://www.w3.org/2000/svg"><circle cx="256" cy="256" fill="#00d65b" r="256"/><path d="m60 289.2 221.535 221.535c124.332-12.314 222.494-113.579 229.986-239.269l-54.909-54.91-5.891 9.282-65.843-65.843z" fill="#06bf51"/><circle cx="104.428" cy="249.917" fill="#805142" r="59.308"/><circle cx="104.428" cy="249.917" fill="#f2bb88" r="30.71"/><circle cx="407.572" cy="249.917" fill="#5e382c" r="59.308"/><circle cx="407.572" cy="249.917" fill="#d6995c" r="30.71"/><circle cx="256" cy="256" fill="#966857" r="160.697"/><path d="m416.697 256c0-88.687-71.844-160.591-160.506-160.694v321.389c88.662-.104 160.506-72.008 160.506-160.695z" fill="#805142"/><path d="m333.679 165.766h-155.358c-28.277 0-51.2 22.923-51.2 51.2 0 28.277 22.923 51.2 51.2 51.2h17.941v43.569c0 32.993 26.746 59.739 59.738 59.739 32.993 0 59.738-26.745 59.738-59.738v-43.569h17.941c28.277 0 51.2-22.923 51.2-51.2 0-28.278-22.923-51.201-51.2-51.201z" fill="#f2bb88"/><path d="m333.679 165.766h-77.489v205.703c32.904-.103 59.548-26.805 59.548-59.733v-43.57h17.941c28.277 0 51.2-22.923 51.2-51.2s-22.923-51.2-51.2-51.2z" fill="#d6995c"/><circle cx="182.06" cy="219.207" fill="#555a66" r="13.667"/><circle cx="329.94" cy="219.207" fill="#333940" r="13.667"/><circle cx="238.336" cy="268.62" fill="#555a66" r="9.993"/><circle cx="273.664" cy="268.62" fill="#333940" r="9.993"/></svg>